<?xml version="1.0" standalone="no"?>
<!DOCTYPE svg PUBLIC "-//W3C//DTD SVG 20010904//EN"
 "http://www.w3.org/TR/2001/REC-SVG-20010904/DTD/svg10.dtd">
<svg version="1.0" xmlns="http://www.w3.org/2000/svg"
 width="120.000000pt" height="120.000000pt" viewBox="0 0 120.000000 120.000000"
 preserveAspectRatio="xMidYMid meet">

<g transform="translate(0.000000,120.000000) scale(0.100000,-0.100000)"
fill="#FFF" stroke="none">
<path d="M920 1117 c-36 -13 -75 -29 -88 -36 -18 -9 -32 -9 -74 4 -130 38
-267 26 -389 -36 -80 -40 -185 -144 -218 -217 -22 -47 -28 -52 -57 -52 -30 0
-51 -20 -37 -34 4 -3 212 -6 464 -6 443 0 457 -1 452 -19 -3 -10 0 -22 6 -25
13 -9 63 66 114 171 35 74 42 97 42 151 0 59 -2 66 -33 93 -41 36 -90 38 -182
6z m162 -34 c25 -22 23 -83 -4 -160 -12 -35 -24 -63 -28 -63 -3 0 -23 23 -43
50 -21 28 -65 71 -98 95 l-61 45 43 18 c70 30 72 30 123 31 33 1 56 -5 68 -16z
m-502 -108 c0 -84 -2 -95 -17 -95 -26 0 -135 19 -140 24 -7 6 23 60 54 96 26
31 79 70 96 70 4 0 7 -43 7 -95z m108 65 c23 -16 55 -53 71 -82 35 -62 36 -61
-71 -72 l-68 -8 0 96 c0 110 3 113 68 66z m-265 -57 c-25 -38 -46 -69 -48 -71
-1 -1 -24 6 -50 16 l-47 18 34 26 c38 29 127 77 145 78 6 0 -9 -30 -34 -67z
m365 52 c47 -20 132 -75 132 -85 0 -7 -91 -43 -95 -37 -2 1 -10 18 -20 37 -10
19 -28 50 -42 68 -27 37 -26 38 25 17z m-421 -160 c1 0 -4 -21 -11 -45 l-13
-45 -87 -3 c-47 -1 -86 0 -86 3 0 11 32 70 56 101 l23 32 58 -21 c32 -11 59
-21 60 -22z m626 -6 c29 -41 34 -56 26 -70 -8 -16 -22 -19 -82 -19 l-73 0 -12
46 c-7 26 -11 48 -10 49 6 4 103 43 109 44 3 1 22 -22 42 -50z m-460 -19 l47
0 0 -35 0 -35 -100 0 -100 0 6 28 c13 55 20 61 61 51 21 -5 59 -9 86 -9z m285
-32 l10 -38 -104 0 -104 0 0 35 0 35 48 1 c26 0 65 4 87 8 47 9 50 7 63 -41z"/>
<path d="M1075 770 c-16 -27 42 -42 75 -20 13 9 13 11 0 20 -20 13 -67 13 -75
0z"/>
<path d="M240 586 c0 -84 2 -94 18 -92 13 2 18 14 20 55 l3 53 39 -54 c58 -82
70 -75 70 39 0 85 -2 93 -19 93 -17 0 -20 -8 -23 -52 l-3 -53 -37 53 c-57 78
-68 71 -68 -42z"/>
<path d="M422 589 l3 -92 60 0 c47 0 61 4 63 17 3 13 -5 16 -37 16 -34 0 -41
3 -41 20 0 16 7 20 35 20 24 0 35 5 35 15 0 10 -11 15 -35 15 -28 0 -35 4 -35
20 0 17 7 20 41 20 33 0 40 3 37 18 -3 14 -16 18 -66 20 l-63 3 3 -92z"/>
<path d="M570 668 c0 -18 36 -154 44 -166 15 -25 41 -3 57 49 l16 54 14 -50
c12 -42 19 -50 38 -50 21 0 26 8 41 60 33 119 33 115 6 115 -21 0 -25 -7 -36
-62 l-13 -63 -16 60 c-21 77 -45 86 -61 23 -21 -84 -22 -84 -44 15 -4 18 -13
27 -26 27 -11 0 -20 -6 -20 -12z"/>
<path d="M848 668 c-23 -18 -30 -51 -16 -71 7 -9 31 -22 53 -29 22 -7 40 -17
40 -23 0 -14 -45 -19 -58 -6 -13 13 -47 15 -47 3 0 -27 31 -47 73 -47 53 0 77
18 77 56 0 31 -9 39 -59 54 -19 6 -36 15 -38 21 -6 19 29 26 47 9 34 -31 63
-8 30 25 -23 23 -77 27 -102 8z"/>
<path d="M733 445 c-17 -12 -78 -15 -349 -17 -213 -2 -328 -7 -327 -13 2 -5
18 -11 38 -13 19 -2 35 -5 35 -7 0 -2 -9 -19 -19 -37 -11 -18 -31 -69 -46
-112 -28 -89 -24 -124 19 -165 53 -49 163 -30 310 53 176 101 430 326 368 326
-4 0 -17 -7 -29 -15z m-383 -69 c19 -52 17 -56 -42 -80 l-57 -24 -24 32 c-29
40 -57 84 -57 91 0 3 38 5 85 5 81 0 86 -1 95 -24z m230 0 c0 -25 8 -23 -134
-42 -41 -6 -44 -4 -54 24 -6 17 -8 33 -5 36 4 3 48 6 100 6 91 0 93 0 93 -24z
m80 -1 c-13 -14 -27 -25 -32 -25 -4 0 -8 11 -8 25 0 21 5 25 32 25 l31 0 -23
-25z m-480 -66 c25 -41 92 -109 140 -142 30 -21 24 -26 -58 -57 -65 -25 -129
-26 -154 -3 -27 24 -24 99 8 178 14 36 29 65 33 65 3 0 17 -19 31 -41z m398
-4 c-16 -17 -113 -85 -120 -85 -13 0 -40 62 -31 70 4 5 22 10 38 13 47 6 119
8 113 2z m-177 -66 c18 -37 19 -43 6 -56 -17 -17 -36 -10 -96 36 l-34 26 39
17 c55 25 61 23 85 -23z"/>
<path d="M800 416 c0 -8 5 -16 11 -18 8 -3 9 -15 4 -37 -7 -33 -7 -33 -52 -26
-40 6 -44 4 -41 -12 2 -11 15 -20 33 -23 35 -7 34 -16 -1 -77 -26 -44 -73 -86
-111 -98 -22 -6 -23 -4 -23 50 0 48 -3 56 -17 53 -14 -2 -19 -15 -21 -56 -2
-28 -6 -52 -10 -52 -4 0 -21 9 -38 19 l-32 19 -22 -23 -22 -23 24 -13 c41 -23
202 -17 281 10 125 42 224 124 289 238 26 46 33 52 66 55 20 2 37 8 37 13 0 6
-68 11 -177 13 -150 2 -178 0 -178 -12z m230 -28 c0 -7 -16 -36 -35 -64 l-36
-51 -57 23 c-31 13 -57 27 -57 31 0 4 4 23 9 41 l8 32 84 0 c60 0 84 -4 84
-12z m-137 -126 l39 -17 -44 -31 c-47 -34 -90 -58 -126 -69 -22 -6 -21 -4 12
44 19 28 38 60 41 71 8 24 27 24 78 2z"/>
</g>
</svg>
